<svg width="55" height="55" viewBox="0 0 55 55" fill="none" xmlns="http://www.w3.org/2000/svg">
<circle cx="27.5" cy="27.5" r="27.5" fill="#0098EE"/>
<path d="M19.3069 24.8548L22.9795 23.5573V15.2299H19.3069V24.8548Z" fill="white"/>
<path d="M29.3732 24.8548L33.0486 23.5573V15.2299H29.3732V24.8548Z" fill="white"/>
<path d="M14.8202 42H41.1812V33.0322H14.8202V42ZM27.4451 34.4138H30.2728V38.9383H27.4451V34.4138ZM22.447 34.4138H25.2761V38.9383H22.447V34.4138ZM17.2639 34.4138H20.0902V38.9383H17.2639V34.4138Z" fill="white"/>
<path d="M34.957 27.7231L34.2354 24.0603L25.0715 27.7231L23.9743 24.0603L14.8202 27.7231V31.6283H41.1798V27.7231H34.957Z" fill="white"/>
<path d="M17.6464 14.6329C18.1074 14.546 18.4633 14.2868 18.745 14.0037C19.0378 13.7165 19.262 13.4292 19.5969 13.2569C19.9136 13.0789 20.3171 13.0285 20.5778 13.0803C20.8272 13.1238 20.9869 13.2317 21.1719 13.5161C21.3456 13.7879 21.4717 14.134 21.6259 14.497H21.7001C21.8319 14.1074 21.8375 13.6927 21.7044 13.2737C21.6343 13.0649 21.5138 12.8505 21.312 12.681C21.1144 12.5072 20.8216 12.4246 20.5792 12.4526C20.0747 12.5142 19.7791 12.8323 19.4652 13.0509C19.1555 13.2751 18.8347 13.5189 18.5096 13.6646C18.1747 13.809 17.8412 13.9085 17.5498 13.9267C17.2541 13.9337 17.0243 13.8384 16.7945 13.6632C16.3195 13.3101 15.9398 12.6586 15.5404 12L15.4661 12.014C15.4157 12.8043 15.6063 13.6478 16.2901 14.2882C16.6376 14.5993 17.1896 14.7408 17.6464 14.6329Z" fill="white"/>
<path d="M29.0229 14.6973C29.3704 14.6259 29.6171 14.4241 29.8118 14.2013C30.001 13.9883 30.1565 13.7767 30.3863 13.666C30.6077 13.5469 30.9034 13.5553 31.0477 13.6072C31.178 13.6548 31.2397 13.673 31.3798 13.851C31.5059 14.0177 31.6152 14.2475 31.7651 14.4956H31.8408C31.9767 14.2209 31.9963 13.9225 31.9122 13.6086C31.866 13.4531 31.7763 13.2877 31.6222 13.1546C31.4709 13.0159 31.2369 12.9542 31.0505 12.9794C30.6652 13.0397 30.4718 13.3003 30.256 13.4601C30.0416 13.6282 29.8118 13.7781 29.5722 13.8664C29.3368 13.9393 29.1042 13.9897 28.9305 13.9911C28.7497 13.9813 28.6362 13.9211 28.4961 13.8216C28.1976 13.6184 27.9048 13.1966 27.5573 12.7581L27.483 12.7735C27.3779 13.3424 27.483 13.9561 27.9889 14.4465C28.2523 14.6833 28.6811 14.7884 29.0229 14.6973Z" fill="white"/>
</svg>
