<svg width="55" height="55" viewBox="0 0 55 55" fill="none" xmlns="http://www.w3.org/2000/svg">
<circle cx="27.5" cy="27.5" r="27.5" fill="#0098EE"/>
<g clip-path="url(#clip0)">
<path d="M42.6242 26.6486C43.168 26.0505 43.1155 25.1338 42.507 24.6017L29.0995 12.8701C28.491 12.3379 27.5153 12.3491 26.9196 12.8952L13.4666 25.2271C12.8708 25.7733 12.8416 26.6888 13.4018 27.2712L13.7391 27.6225C14.2987 28.2048 15.2032 28.2742 15.7581 27.7771L16.7635 26.8767V40.0583C16.7635 40.867 17.4188 41.5218 18.2269 41.5218H23.4709C24.2791 41.5218 24.9344 40.867 24.9344 40.0583V30.8365H31.6232V40.0583C31.6115 40.8664 32.1898 41.5212 32.9979 41.5212H38.5553C39.3634 41.5212 40.0187 40.8664 40.0187 40.0577V27.0623C40.0187 27.0623 40.2965 27.3056 40.639 27.6067C40.981 27.9072 41.6993 27.6663 42.2431 27.0676L42.6242 26.6486Z" fill="white"/>
</g>
<defs>
<clipPath id="clip0">
<rect width="30" height="30" fill="white" transform="translate(13 12)"/>
</clipPath>
</defs>
</svg>
